<?xml version="1.0" encoding="utf-8"?>
<!-- Generator: Adobe Illustrator 16.0.0, SVG Export Plug-In . SVG Version: 6.00 Build 0)  -->
<!DOCTYPE svg PUBLIC "-//W3C//DTD SVG 1.1//EN" "http://www.w3.org/Graphics/SVG/1.1/DTD/svg11.dtd">
<svg version="1.1" id="Livello_1" xmlns="http://www.w3.org/2000/svg" xmlns:xlink="http://www.w3.org/1999/xlink" x="0px" y="0px"
	 width="337px" height="560px" viewBox="0 0 337 560" enable-background="new 0 0 337 560" xml:space="preserve">
<polygon fill="#C36922" points="300.989,25.167 300.989,268.346 22.329,268.283 "/>
<g>
	<rect x="22.329" y="268.283" fill="#F07F20" width="278.66" height="271.515"/>
	<g>
		<path fill="#FFED97" d="M226.682,348.202c-22.436,12.393-33.742-2.578-49.258,4.077c-6.585,2.822-40.17,28.235-37.19,59.456
			c0,0,18.546-5.824,35.771-17.876c6.272-4.4,25.887,33.096,19.295,38.426c-18.026,14.599-32.47,24.007-32.47,24.007
			s39.688,26.522,69.498-1.406c29.812-27.931,0.626-49.269,37.181-86.766c6.121-6.274,14.668-14.774,24.641-24.567l-29.564-30.087
			C246.871,331.46,232.629,344.913,226.682,348.202"/>
		<path fill="#FFD400" d="M92.371,465.969c22.658-11.559,33.383,3.663,48.98-2.43c6.626-2.582,40.763-26.688,38.835-57.75
			c0,0-18.589,5.177-36.062,16.565c-6.373,4.152-24.594-33.678-17.881-38.751c18.368-13.881,33.004-22.737,33.004-22.737
			s-38.496-27.604-68.982-0.877c-30.477,26.712-2.235,48.828-39.716,84.816c-5.469,5.25-12.82,12.115-21.38,20.001l29.288,29.808
			C74.351,479.673,86.903,468.756,92.371,465.969"/>
	</g>
</g>
</svg>
