<?xml version="1.0" encoding="utf-8"?>
<!-- Generator: Adobe Illustrator 16.0.0, SVG Export Plug-In . SVG Version: 6.00 Build 0)  -->
<!DOCTYPE svg PUBLIC "-//W3C//DTD SVG 1.1//EN" "http://www.w3.org/Graphics/SVG/1.1/DTD/svg11.dtd">
<svg version="1.1" id="Livello_1" xmlns="http://www.w3.org/2000/svg" xmlns:xlink="http://www.w3.org/1999/xlink" x="0px" y="0px"
	 width="960px" height="560px" viewBox="0 0 960 560" enable-background="new 0 0 960 560" xml:space="preserve">
<g>
	<path fill="#FFED97" d="M669.846,116.968c-65.505,36.185-98.516-7.525-143.819,11.906
		c-19.226,8.241-117.282,82.438-108.582,173.592c0,0,54.148-17.004,104.439-52.192c18.312-12.848,75.579,96.629,56.335,112.192
		c-52.634,42.623-94.803,70.092-94.803,70.092s115.875,77.438,202.911-4.105c87.04-81.549,1.829-143.85,108.557-253.328
		c17.87-18.32,42.824-43.137,71.942-71.729l-86.32-87.844C728.79,68.09,687.209,107.369,669.846,116.968"/>
	<path fill="#FFD400" d="M277.699,460.811c66.155-33.746,97.467,10.697,143.009-7.092c19.345-7.541,119.013-77.922,113.385-168.613
		c0,0-54.274,15.115-105.289,48.367c-18.607,12.123-71.805-98.33-52.207-113.142c53.631-40.529,96.361-66.387,96.361-66.387
		s-112.395-80.595-201.404-2.559c-88.981,77.991-6.528,142.564-115.959,247.638c-15.965,15.326-37.432,35.371-62.422,58.396
		l85.511,87.027C225.087,500.822,261.737,468.949,277.699,460.811"/>
</g>
</svg>
