<?xml version="1.0" encoding="utf-8"?>
<!-- Generator: Adobe Illustrator 18.1.1, SVG Export Plug-In . SVG Version: 6.00 Build 0)  -->
<svg version="1.1" id="Livello_1" xmlns="http://www.w3.org/2000/svg" xmlns:xlink="http://www.w3.org/1999/xlink" x="0px" y="0px"
	 viewBox="0 0 263.1 82.6" enable-background="new 0 0 263.1 82.6" xml:space="preserve">
<g>
	<path d="M119,43.5c-1,4.3-3.4,7.2-8.1,7.2c-5.2,0-8.9-3.8-8.9-11.9c0-7.5,3.3-11.9,8.9-11.9c4.3,0,6.8,2.5,7.8,6.7l-2.4,0.7
		c-0.8-3.3-2.3-5.3-5.8-5.3c-3.3,0-6,3.1-6,9.7c0,6.7,2.6,9.7,6.5,9.7c3.6,0,4.9-2.7,5.6-5.5L119,43.5z"/>
	<path d="M122.7,50.4l7.1-23.2h3.8l7.1,23.2H138l-2.2-7.2h-8.3l-2.2,7.2H122.7z M128.2,41h7L131.9,29h-0.4L128.2,41z"/>
	<path d="M157.5,33.1c-0.6-2.2-2.4-4-5.4-4c-2.7,0-4.3,1.3-4.3,3.6c-0.1,5.1,13,3.8,13,11.2c0,3.4-1.9,6.8-7.8,6.8
		c-5.1,0-7.1-3.3-8.3-6l2.3-0.8c0.9,2.4,2.7,4.7,6.1,4.7c3.4,0,5.1-1.8,5.1-4.2c0-5.9-13-4.2-13-11.5c0-3.3,2.8-6,7-6
		c3.6,0,6.4,1.9,7.6,5.7L157.5,33.1z"/>
	<path d="M165.1,50.4l7.1-23.2h3.8l7.1,23.2h-2.7l-2.2-7.2H170l-2.2,7.2H165.1z M170.6,41h7L174.3,29h-0.4L170.6,41z"/>
	<path d="M200.1,27.2h6.2c6.3,0,10.5,4,10.5,11.6c0,6.8-3.7,11.6-10.6,11.6h-6.1V27.2z M202.7,48.2h3.5c5.3,0,8.1-3.2,8.1-9.4
		c0-6.8-3.2-9.4-8-9.4h-3.6V48.2z"/>
	<path d="M237.2,27.2v2.2h-11.3v7.8h8v2.2h-8v8.9h12v2.2h-14.5V27.2H237.2z"/>
	<path d="M244.6,50.4V27.2h2.6v21h11v2.2H244.6z"/>
	<path stroke="#000000" stroke-width="0.4455" stroke-miterlimit="10" d="M117,54.9v3.7h-6.1V78h-4.4V58.6h-6.1v-3.7H117z"/>
	<path stroke="#000000" stroke-width="0.4455" stroke-miterlimit="10" d="M120.5,78V54.9h9.2c5.3,0,7.4,3,7.4,6.9
		c0,2.9-1.4,5.2-4.2,6L138,78h-4.9l-4.4-9.4h-3.8V78H120.5z M124.9,65h3.3c3.5,0,4.5-1.1,4.5-3.3c0-2.2-1.3-3.3-3.8-3.3h-4V65z"/>
	<path stroke="#000000" stroke-width="0.4455" stroke-miterlimit="10" d="M146.8,54.9h5.5l6.6,23.2h-4.4l-1.3-5h-7.3l-1.4,5h-4.4
		L146.8,54.9z M146.8,69.4h5.4l-2.6-10.1h-0.1L146.8,69.4z"/>
	<path stroke="#000000" stroke-width="0.4455" stroke-miterlimit="10" d="M176.8,54.9v3.7h-6.1V78h-4.4V58.6h-6.1v-3.7H176.8z"/>
	<path stroke="#000000" stroke-width="0.4455" stroke-miterlimit="10" d="M194.9,54.9v3.7h-6.1V78h-4.4V58.6h-6.1v-3.7H194.9z"/>
	<path stroke="#000000" stroke-width="0.4455" stroke-miterlimit="10" d="M206.6,78.4c-6.3,0-9.7-4.3-9.7-11.9
		c0-7.6,3.4-11.9,9.7-11.9c6.3,0,9.7,4.3,9.7,11.9C216.3,74,212.9,78.4,206.6,78.4z M206.6,58.3c-3.6,0-5.3,2.8-5.3,8.2
		c-0.1,5.4,1.6,8.2,5.3,8.2c3.6,0,5.3-2.8,5.3-8.2C211.9,61,210.2,58.3,206.6,58.3z"/>
	<path stroke="#000000" stroke-width="0.4455" stroke-miterlimit="10" d="M220.1,78V54.9h9.2c5.3,0,7.4,3,7.4,6.9
		c0,2.9-1.4,5.2-4.2,6l5.1,10.3h-4.9l-4.4-9.4h-3.8V78H220.1z M224.5,65h3.3c3.5,0,4.5-1.1,4.5-3.3c0-2.2-1.3-3.3-3.8-3.3h-4V65z"/>
	<path stroke="#000000" stroke-width="0.4455" stroke-miterlimit="10" d="M242,78V54.9h15.3v3.7h-10.9v5.5h7.9v3.7h-7.9v6.5h11.3V78
		H242z"/>
</g>
<g>
	<path fill="#FFEB95" d="M83.8,19.1c-8.9,4.9-13.4-1-19.5,1.6C61.6,21.9,48.3,32,49.5,44.3c0,0,7.4-2.3,14.2-7.1
		c2.5-1.7,10.3,13.1,7.7,15.2C64.2,58.3,58.5,62,58.5,62S74.2,72.5,86,61.5c11.8-11.1,0.2-19.5,14.7-34.4c2.4-2.5,5.8-5.9,9.8-9.7
		L98.8,5.4C91.8,12.5,86.1,17.8,83.8,19.1z"/>
	<path fill="#FFD400" d="M30.5,65.8c9-4.6,13.2,1.5,19.4-1c2.6-1,16.2-10.6,15.4-22.9c0,0-7.4,2.1-14.3,6.6
		c-2.5,1.6-9.8-13.4-7.1-15.4c7.3-5.5,13.1-9,13.1-9s-15.3-10.9-27.4-0.3C17.6,34.4,28.8,43.2,14,57.5c-2.2,2.1-5.1,4.8-8.5,7.9
		l11.6,11.8C23.4,71.3,28.4,67,30.5,65.8z"/>
</g>
</svg>
