<?xml version="1.0" encoding="utf-8"?>
<!-- Generator: Adobe Illustrator 18.1.1, SVG Export Plug-In . SVG Version: 6.00 Build 0)  -->
<svg version="1.1" id="Livello_1" xmlns="http://www.w3.org/2000/svg" xmlns:xlink="http://www.w3.org/1999/xlink" x="0px" y="0px"
	 viewBox="0 0 765.4 127.6" enable-background="new 0 0 765.4 127.6" xml:space="preserve">
<g>
	<g>
		<path fill="#FFFFFF" d="M250.6,101.5c1.4,0,2.5-1.5,2.5-3.4V29c0-1.8-1.1-3.4-2.5-3.4h-15.5c-1.4,0-2.5,1.6-2.5,3.4v69.1
			c0,1.8,1.1,3.4,2.5,3.4H250.6z"/>
		<path fill="#FFFFFF" d="M348.5,101.5c1.4,0,2.5-1.5,2.5-3.4V29c0-1.8-1.1-3.4-2.5-3.4h-15.5c-1.4,0-2.5,1.6-2.5,3.4v69.1
			c0,1.8,1.1,3.4,2.5,3.4H348.5z"/>
		<path fill="#FFFFFF" d="M472.6,42.4H495c1.9,0,3.5-1.5,3.5-3.4v-9.9c0-1.8-1.7-3.3-3.5-3.3h-29.9h-1.8h-9.7
			c-7.4,0-13.5,6-13.5,13.5V88c0,7.5,6,13.6,13.5,13.6h9.7h1.8H495c1.9,0,3.5-1.5,3.5-3.4v-9.9c0-1.9-1.7-3.4-3.5-3.4h-22.4
			c-12.1,0-12.1,0-12.1-4.2v-5.6c0-4.3,0-4.2,12.1-4.2H487c1.8,0,3.3-1.6,3.3-3.4v-7.5c0-1.9-1.5-3.3-3.3-3.3h-14.4
			c-12.1,0-12.1-0.3-12.1-4.2c0,0,0-4.2,0-5.6C460.5,42.4,460.5,42.4,472.6,42.4z"/>
		<path fill="#FFFFFF" d="M403.5,101.6c0,0-0.7-0.1-1.3-0.1c-0.8-0.1-6.2-9.5-7.7-12.8l0,0l-18.4-40.2l0.1,49.8
			c0,1.9-1.5,3.4-3.3,3.4h-10.1c-1.8,0-3.3-1.6-3.3-3.4V29.2c0-1.8,1.5-3.3,3.3-3.3h4.5c0.3-0.1,0.6,0,0.9,0h17.8
			c1.9,0,2.7,1.1,3.8,3.3l25,53.9v-54c0-1.8,1.5-3.4,3.3-3.4h10.3c1.9,0,3.4,1.5,3.4,3.4v69.1c0,1.9-1.5,3.3-3.4,3.3h-4.7
			L403.5,101.6z"/>
		<path fill="#FFFFFF" d="M734.2,25.5h-33.4c-18.6,0-29.7,10.9-29.7,38c0,27.1,11,38,29.7,38h14.4c0.3,0.1,0.5,0.1,0.8,0.1h18.1
			c1.6,0,2.8-1.5,2.8-3.4V67.1c0-1.9-1.2-3.4-2.8-3.4l-14.6,0.1c-1.6,0-3.2,1.4-3.2,3.3v17.8h-6.1V85c-18.6,0-18.6-11.4-18.6-21.3
			c0-9.9,0-21.4,18.6-21.4v-0.1h24c1.6,0,2.8-1.5,2.8-3.4v-9.9C737,27.1,735.8,25.5,734.2,25.5z"/>
		<path fill="#FFFFFF" d="M647.6,101.7c2.6,0,4.9-2.3,5.5-5.3l0-0.1l15.2-67.3c0-1.9-1.3-3.4-2.8-3.4h-9.1c-1.5,0-2.8,1.5-2.8,3.4
			l-11,49.7h0c-0.8,2.7-0.8,2.7-3.1,2.8c-4.5,0.2-4,0-4.8-2.8v-0.1L622.3,29c-0.1-3.3-2.1-3.3-5.5-3.3l-12.2-0.2
			c-1.5,0-2.8,1.5-2.8,3.4l15,67.3l0,0.1c0.6,3,2.8,5.3,5.5,5.3H647.6z"/>
		<path fill="#FFFFFF" d="M131.3,42.5h22.6c1.8,0,3.3-1.4,3.3-3.3v-10c0-1.8-1.5-3.4-3.3-3.4h-30.1H122h-9.7
			c-7.5,0-13.5,6.1-13.5,13.6l-0.1,37.7l0.1,21.3c0,1.8,1.5,3.4,3.4,3.4l13.4-0.1c3.7,0,3.7-3.3,3.7-3.3c0-5.4,0-21.6,0-21.6v-1.4
			c0-4.4,0-4.2,12-4.2h14.5c1.9,0,3.4-1.5,3.4-3.4v-7.6c0-1.8-1.5-3.4-3.4-3.4h-14.5c-12,0-12-0.1-12-4.2V47
			C119.3,42.4,119.3,42.5,131.3,42.5z"/>
		<path fill="#FFFFFF" d="M198.3,42.5h22.6c1.8,0,3.3-1.4,3.3-3.3v-10c0-1.8-1.5-3.4-3.3-3.4h-30.1H189h-9.7
			c-7.5,0-13.5,6.1-13.5,13.6l-0.1,37.7l0.1,21.3c0,1.8,1.5,3.4,3.4,3.4l13.4-0.1c3.7,0,3.7-3.3,3.7-3.3c0-5.4,0-21.6,0-21.6v-1.4
			c0-4.4,0-4.2,12-4.2h14.5c1.9,0,3.4-1.5,3.4-3.4v-7.6c0-1.8-1.5-3.4-3.4-3.4h-14.5c-12,0-12-0.1-12-4.2V47
			C186.3,42.4,186.3,42.5,198.3,42.5z"/>
		<path fill="#FFFFFF" d="M567.5,42.5H590c1.8,0,3.3-1.4,3.3-3.3v-10c0-1.8-1.5-3.4-3.3-3.4h-30.1h-1.8h-9.7
			c-7.5,0-13.5,6.1-13.5,13.6l-0.1,37.7l0.1,21.3c0,1.8,1.5,3.4,3.4,3.4l13.4-0.1c3.7,0,3.7-3.3,3.7-3.3c0-5.4,0-21.6,0-21.6v-1.4
			c0-4.4,0-4.2,12-4.2h14.5c1.9,0,3.4-1.5,3.4-3.4v-7.6c0-1.8-1.5-3.4-3.4-3.4h-14.5c-12,0-12-0.1-12-4.2V47
			C555.5,42.4,555.5,42.5,567.5,42.5z"/>
	</g>
	<path fill="#FFFFFF" d="M52.3,84.8C36.8,84.8,35,73.5,35,63.7c0-9.9,1.8-21.2,17.3-21.2c15.5,0,17.2,11.3,17.2,21.2
		C69.5,73.5,67.8,84.8,52.3,84.8z M55.1,25.5h-5.6c-22.2,0-35.3,10.9-35.3,38.1c0,27.2,13.1,38.1,35.3,38.1h5.6
		c22.2,0,35.3-10.9,35.3-38.1C90.4,36.4,77.3,25.5,55.1,25.5"/>
	<path fill="#FFFFFF" d="M282,64c0,9.8,1.7,21.4,17.1,21.4v-0.1h19.4c1.9,0,3.4,1.5,3.4,3.4v10c0,1.8-1.5,3.4-3.4,3.4h-22.1
		c-22.1,0-35.2-10.9-35.2-38c0-27.1,13.1-38,35.2-38h22.1c1.9,0,3.4,1.5,3.4,3.3v9.9c0,1.9-1.5,3.3-3.4,3.3h-19.4v0.1
		C283.7,42.7,282,54.1,282,64z"/>
</g>
</svg>
