<?xml version="1.0" encoding="utf-8"?>
<!-- Generator: Adobe Illustrator 16.0.0, SVG Export Plug-In . SVG Version: 6.00 Build 0)  -->
<!DOCTYPE svg PUBLIC "-//W3C//DTD SVG 1.1//EN" "http://www.w3.org/Graphics/SVG/1.1/DTD/svg11.dtd">
<svg version="1.1" id="Livello_1" xmlns="http://www.w3.org/2000/svg" xmlns:xlink="http://www.w3.org/1999/xlink" x="0px" y="0px"
	 width="1920px" height="240px" viewBox="0 416.5 1920 240" enable-background="new 0 416.5 1920 240" xml:space="preserve">
<g>
	<g>
		<path fill="#024995" d="M628.628,634.57c3.512,0,6.271-3.763,6.271-8.529V452.704c0-4.515-2.76-8.528-6.271-8.528h-38.882
			c-3.512,0-6.271,4.014-6.271,8.528v173.337c0,4.516,2.759,8.529,6.271,8.529H628.628z"/>
		<path fill="#024995" d="M874.209,634.57c3.513,0,6.271-3.763,6.271-8.529V452.704c0-4.515-2.759-8.528-6.271-8.528h-38.881
			c-3.512,0-6.271,4.014-6.271,8.528v173.337c0,4.516,2.76,8.529,6.271,8.529H874.209z"/>
		<path fill="#024995" d="M1185.514,486.318h56.189c4.767,0,8.78-3.763,8.78-8.529v-24.834c0-4.515-4.265-8.277-8.78-8.277h-75.004
			h-4.515h-24.333c-18.562,0-33.864,15.051-33.864,33.864v122.163c0,18.814,15.051,34.116,33.864,34.116h24.333h4.515h75.004
			c4.767,0,8.78-3.763,8.78-8.529v-24.834c0-4.766-4.265-8.529-8.78-8.529h-56.189c-30.354,0-30.354,0-30.354-10.535v-14.048
			c0-10.786,0-10.535,30.354-10.535h36.122c4.516,0,8.278-4.014,8.278-8.529v-18.813c0-4.767-3.763-8.278-8.278-8.278h-36.122
			c-30.354,0-30.354-0.752-30.354-10.535c0,0,0-10.536,0-14.048C1155.16,486.318,1155.16,486.318,1185.514,486.318z"/>
		<path fill="#024995" d="M1012.177,634.821c0,0-1.756-0.251-3.261-0.251c-2.007-0.251-15.553-23.831-19.316-32.108l0,0
			L943.444,501.62l0.251,124.923c0,4.767-3.764,8.529-8.278,8.529h-25.336c-4.516,0-8.278-4.014-8.278-8.529V453.206
			c0-4.516,3.763-8.278,8.278-8.278h11.288c0.753-0.25,1.505,0,2.258,0h44.651c4.766,0,6.772,2.76,9.532,8.278l62.712,135.208
			V452.955c0-4.515,3.763-8.528,8.278-8.528h25.837c4.767,0,8.529,3.763,8.529,8.528v173.337c0,4.767-3.763,8.278-8.529,8.278
			h-11.79L1012.177,634.821z"/>
		<path fill="#024995" d="M1841.734,443.925h-83.783c-46.658,0-74.502,27.343-74.502,95.322c0,67.98,27.594,95.323,74.502,95.323
			h36.123c0.752,0.251,1.254,0.251,2.006,0.251h45.404c4.014,0,7.023-3.763,7.023-8.529v-78.014c0-4.767-3.01-8.529-7.023-8.529
			L1804.86,540c-4.014,0-8.027,3.512-8.027,8.278v44.65h-15.302v0.251c-46.658,0-46.658-28.597-46.658-53.431
			s0-53.682,46.658-53.682v-0.251h60.203c4.014,0,7.024-3.763,7.024-8.528v-24.835
			C1848.759,447.938,1845.748,443.925,1841.734,443.925z"/>
		<path fill="#024995" d="M1624.5,635.072c6.521,0,12.291-5.77,13.797-13.296v-0.25l38.129-168.822c0-4.766-3.262-8.528-7.024-8.528
			h-22.827c-3.763,0-7.023,3.763-7.023,8.528l-27.594,124.673l0,0c-2.007,6.772-2.007,6.772-7.776,7.023
			c-11.288,0.502-10.034,0-12.04-7.023v-0.251l-31.105-124.422c-0.251-8.277-5.268-8.277-13.797-8.277l-30.604-0.502
			c-3.764,0-7.024,3.763-7.024,8.528l37.628,168.822v0.251c1.505,7.525,7.023,13.295,13.797,13.295h63.465V635.072z"/>
		<path fill="#024995" d="M329.365,486.569h56.692c4.515,0,8.278-3.512,8.278-8.278v-25.085c0-4.516-3.763-8.528-8.278-8.528
			h-75.506h-4.515h-24.333c-18.813,0-33.865,15.302-33.865,34.115l-0.25,94.57l0.25,53.431c0,4.516,3.763,8.528,8.529,8.528
			l33.613-0.25c9.282,0,9.282-8.278,9.282-8.278c0-13.546,0-54.184,0-54.184v-3.512c0-11.037,0-10.536,30.102-10.536h36.373
			c4.766,0,8.529-3.763,8.529-8.528V530.97c0-4.516-3.763-8.529-8.529-8.529h-36.373c-30.102,0-30.102-0.251-30.102-10.535v-14.048
			C299.263,486.318,299.263,486.569,329.365,486.569z"/>
		<path fill="#024995" d="M497.434,486.569h56.692c4.516,0,8.278-3.512,8.278-8.278v-25.085c0-4.516-3.763-8.528-8.278-8.528H478.62
			h-4.515h-24.333c-18.813,0-33.864,15.302-33.864,34.115l-0.251,94.57l0.251,53.431c0,4.516,3.763,8.528,8.528,8.528l33.614-0.25
			c9.281,0,9.281-8.278,9.281-8.278c0-13.546,0-54.184,0-54.184v-3.512c0-11.037,0-10.536,30.102-10.536h36.373
			c4.767,0,8.529-3.763,8.529-8.528V530.97c0-4.516-3.763-8.529-8.529-8.529h-36.373c-30.102,0-30.102-0.251-30.102-10.535v-14.048
			C467.332,486.318,467.332,486.569,497.434,486.569z"/>
		<path fill="#024995" d="M1423.569,486.569h56.441c4.515,0,8.277-3.512,8.277-8.278v-25.085c0-4.516-3.763-8.528-8.277-8.528
			h-75.506h-4.516h-24.332c-18.813,0-33.864,15.302-33.864,34.115l-0.251,94.57l0.251,53.431c0,4.516,3.763,8.528,8.528,8.528
			l33.614-0.25c9.281,0,9.281-8.278,9.281-8.278c0-13.546,0-54.184,0-54.184v-3.512c0-11.037,0-10.536,30.102-10.536h36.373
			c4.767,0,8.529-3.763,8.529-8.528V530.97c0-4.516-3.763-8.529-8.529-8.529h-36.373c-30.102,0-30.102-0.251-30.102-10.535v-14.048
			C1393.468,486.318,1393.468,486.569,1423.569,486.569z"/>
	</g>
	<path fill="#024995" d="M131.194,592.679c-38.882,0-43.397-28.347-43.397-52.93c0-24.834,4.515-53.18,43.397-53.18
		c38.881,0,43.146,28.346,43.146,53.18C174.34,564.332,170.076,592.679,131.194,592.679z M138.218,443.925H124.17
		c-55.688,0-88.55,27.343-88.55,95.573c0,68.231,32.861,95.574,88.55,95.574h14.047c55.688,0,88.55-27.343,88.55-95.574
		C226.768,471.268,193.906,443.925,138.218,443.925"/>
	<path fill="#024995" d="M707.395,540.502c0,24.583,4.265,53.682,42.896,53.682v-0.251h48.665c4.766,0,8.528,3.763,8.528,8.529
		v25.085c0,4.515-3.763,8.528-8.528,8.528h-55.438c-55.438,0-88.3-27.343-88.3-95.322c0-67.98,32.861-95.323,88.3-95.323h55.438
		c4.766,0,8.528,3.763,8.528,8.278v24.834c0,4.766-3.763,8.278-8.528,8.278H750.29v0.25
		C711.659,487.07,707.395,515.668,707.395,540.502z"/>
</g>
</svg>
