<?xml version="1.0" encoding="utf-8"?>
<!-- Generator: Adobe Illustrator 16.0.0, SVG Export Plug-In . SVG Version: 6.00 Build 0)  -->
<!DOCTYPE svg PUBLIC "-//W3C//DTD SVG 1.1//EN" "http://www.w3.org/Graphics/SVG/1.1/DTD/svg11.dtd">
<svg version="1.1" id="Livello_1" xmlns="http://www.w3.org/2000/svg" xmlns:xlink="http://www.w3.org/1999/xlink" x="0px" y="0px"
	 width="960px" height="560px" viewBox="0 0 960 560" enable-background="new 0 0 960 560" xml:space="preserve">
<g>
	<path fill="#FFFFFF" d="M904.492,163.854H802.797c-56.771,0-90.375,33.252-90.375,115.814c0,82.611,33.604,115.768,90.375,115.768
		h43.857c0.781,0.332,1.439,0.484,2.338,0.484h55.266c4.859,0,8.664-4.688,8.664-10.355v-95.031c0-5.716-3.805-10.309-8.664-10.309
		l-44.496,0.248c-4.912,0-9.824,4.345-9.824,10.061v54.139h-18.469v0.225c-56.635,0-56.635-34.811-56.635-64.838
		c0-30.086,0-65.298,56.635-65.298v-0.212h73.023c4.744,0,8.547-4.499,8.547-10.263v-30.073
		C913.039,168.531,909.236,163.854,904.492,163.854"/>
	<path fill="#FFFFFF" d="M645.965,395.908c8.053,0,14.879-6.941,16.697-16.107l-0.143-0.482l46.385-205.073
		c0-5.701-3.83-10.391-8.625-10.391h-27.65c-4.586,0-8.506,4.69-8.506,10.391l-33.461,151.333c-2.482,8.23-2.482,8.23-9.33,8.598
		c-13.695,0.578-12.326,0-14.736-8.49v-0.199l-37.832-151.052c-0.357-10-6.26-10-16.814-10l-37.148-0.58
		c-4.631,0-8.43,4.69-8.43,10.391l45.787,205.073l-0.02,0.482c1.746,9.166,8.449,16.107,16.717,16.107H645.965z"/>
	<path fill="#FFFFFF" d="M406.871,215.575h68.75c5.57,0,10.152-4.391,10.152-10.156v-30.32c0-5.609-4.582-10.251-10.152-10.251
		h-91.729h-5.406h-29.545c-22.717,0-41.141,18.421-41.141,41.269l-0.184,114.869l0.184,64.77c0,5.656,4.586,10.295,10.346,10.295
		l40.906-0.141c11.238,0,11.238-10.154,11.238-10.154v-65.748v-4.285c0-13.285,0-12.92,36.58-12.92h44.047
		c5.713,0,10.346-4.709,10.346-10.225v-23.075c0-5.606-4.633-10.271-10.346-10.271h-44.047c-36.58,0-36.58-0.345-36.58-12.766
		v-17.144C370.291,215.243,370.291,215.575,406.871,215.575"/>
	<path fill="#FFFFFF" d="M163.08,344.438c-47.232,0-52.639-34.291-52.639-64.425c0-30.229,5.406-64.673,52.639-64.673
		c47.188,0,52.432,34.444,52.432,64.673C215.512,310.146,210.268,344.438,163.08,344.438 M171.633,163.762h-17.029
		c-67.779,0-107.643,33.344-107.643,116.25c0,82.927,39.863,116.226,107.643,116.226h17.029
		c67.637,0,107.594-33.299,107.594-116.226C279.227,197.106,239.27,163.762,171.633,163.762"/>
</g>
</svg>
