<?xml version="1.0" encoding="utf-8"?>
<!-- Generator: Adobe Illustrator 16.0.0, SVG Export Plug-In . SVG Version: 6.00 Build 0)  -->
<!DOCTYPE svg PUBLIC "-//W3C//DTD SVG 1.1//EN" "http://www.w3.org/Graphics/SVG/1.1/DTD/svg11.dtd">
<svg version="1.1" id="Livello_1" xmlns="http://www.w3.org/2000/svg" xmlns:xlink="http://www.w3.org/1999/xlink" x="0px" y="0px"
	 width="329px" height="560px" viewBox="0 0 329 560" enable-background="new 0 0 329 560" xml:space="preserve">
<polygon fill="#004290" points="295.587,25.167 295.587,268.346 16.927,268.283 "/>
<rect x="16.927" y="268.283" fill="#2F57B5" width="278.66" height="271.515"/>
<g>
	<path fill="#FFFFFF" d="M283.685,369.033h-30.949c-17.277,0-27.504,10.119-27.504,35.244c0,25.141,10.227,35.232,27.504,35.232
		h13.348c0.236,0.1,0.438,0.146,0.711,0.146h16.818c1.479,0,2.637-1.428,2.637-3.152v-28.92c0-1.738-1.158-3.137-2.637-3.137
		l-13.541,0.074c-1.494,0-2.99,1.324-2.99,3.062v16.477h-5.621v0.068c-17.234,0-17.234-10.594-17.234-19.732
		c0-9.156,0-19.871,17.234-19.871v-0.064h22.225c1.443,0,2.602-1.369,2.602-3.125v-9.15
		C286.286,370.455,285.128,369.033,283.685,369.033"/>
	<path fill="#FFFFFF" d="M205.009,439.652c2.449,0,4.527-2.111,5.08-4.902l-0.045-0.146l14.117-62.408
		c0-1.736-1.166-3.162-2.625-3.162h-8.414c-1.395,0-2.588,1.426-2.588,3.162l-10.184,46.055c-0.756,2.504-0.756,2.504-2.84,2.615
		c-4.168,0.176-3.75,0-4.484-2.582v-0.062l-11.514-45.969c-0.107-3.043-1.904-3.043-5.115-3.043l-11.307-0.176
		c-1.41,0-2.564,1.426-2.564,3.162l13.934,62.408l-0.006,0.146c0.531,2.791,2.57,4.902,5.088,4.902H205.009z"/>
	<path fill="#FFFFFF" d="M132.245,384.771h20.924c1.695,0,3.088-1.336,3.088-3.09v-9.227c0-1.709-1.393-3.121-3.088-3.121h-27.916
		h-1.646h-8.99c-6.914,0-12.521,5.605-12.521,12.559l-0.055,34.959l0.055,19.711c0,1.721,1.396,3.133,3.15,3.133l12.447-0.043
		c3.42,0,3.42-3.09,3.42-3.09v-20.008v-1.305c0-4.043,0-3.934,11.133-3.934h13.404c1.738,0,3.148-1.432,3.148-3.109v-7.023
		c0-1.707-1.41-3.125-3.148-3.125h-13.404c-11.133,0-11.133-0.105-11.133-3.887v-5.217
		C121.112,384.672,121.112,384.771,132.245,384.771"/>
	<path fill="#FFFFFF" d="M58.054,423.988c-14.375,0-16.02-10.436-16.02-19.605c0-9.201,1.645-19.682,16.02-19.682
		c14.359,0,15.955,10.48,15.955,19.682C74.009,413.553,72.413,423.988,58.054,423.988 M60.655,369.004h-5.182
		c-20.627,0-32.758,10.148-32.758,35.379c0,25.236,12.131,35.371,32.758,35.371h5.182c20.584,0,32.744-10.135,32.744-35.371
		C93.399,379.152,81.239,369.004,60.655,369.004"/>
</g>
</svg>
